<?xml version="1.0" encoding="utf-8"?>
<!-- Generator: Adobe Illustrator 28.2.0, SVG Export Plug-In . SVG Version: 6.00 Build 0)  -->
<svg version="1.1" id="Layer_1" xmlns="http://www.w3.org/2000/svg" xmlns:xlink="http://www.w3.org/1999/xlink" x="0px" y="0px"
	 viewBox="0 0 500 500" style="enable-background:new 0 0 500 500;" xml:space="preserve">
<style type="text/css">
	.st0{fill:#79A374;}
	.st1{fill:none;stroke:#79A374;stroke-width:14.2857;stroke-linecap:round;stroke-linejoin:round;stroke-miterlimit:5.7143;}
	
		.st2{opacity:0.75;fill:none;stroke:#79A374;stroke-width:14.2857;stroke-linecap:round;stroke-linejoin:round;stroke-miterlimit:5.7143;enable-background:new    ;}
	
		.st3{opacity:0.5;fill:none;stroke:#79A374;stroke-width:14.2857;stroke-linecap:round;stroke-linejoin:round;stroke-miterlimit:5.7143;enable-background:new    ;}
	
		.st4{opacity:0.25;fill:none;stroke:#79A374;stroke-width:14.2857;stroke-linecap:round;stroke-linejoin:round;stroke-miterlimit:5.7143;enable-background:new    ;}
</style>
<ellipse transform="matrix(0.788 -0.6157 0.6157 0.788 -30.3753 146.0695)" class="st0" cx="196.9" cy="117.1" rx="13.6" ry="19.3"/>
<ellipse transform="matrix(0.9659 -0.2588 0.2588 0.9659 -16.3908 61.2134)" class="st0" cx="224.3" cy="92.9" rx="15" ry="20.7"/>
<ellipse transform="matrix(0.2588 -0.9659 0.9659 0.2588 106.0963 323.9817)" class="st0" cx="264.2" cy="92.9" rx="20.7" ry="15"/>
<ellipse transform="matrix(0.6157 -0.788 0.788 0.6157 16.7415 274.8331)" class="st0" cx="290.1" cy="120.3" rx="19.3" ry="13.6"/>
<g>
	<path class="st1" d="M202.6,200l42.9,35.7l42.9-35.7"/>
	<path class="st2" d="M202.6,250l42.9,35.7l42.9-35.7"/>
	<path class="st3" d="M202.6,300l42.9,35.7l42.9-35.7"/>
	<path class="st4" d="M202.6,350l42.9,35.7l42.9-35.7"/>
</g>
<path class="st0" d="M268.1,183.5c-6.5-0.4-13.8-4.7-21.4-4.7c-8.9-0.8-16.4,4.3-24.9,4.7c-8.4,0.2-15.6-7.6-14.6-14.3
	c1.2-6.8,9.1-10.9,12.1-17.1c3.3-6.2,3.5-13.5,7.8-19.4c5.3-7.6,17.6-11.3,27.2-7.1c13.5,5.2,10.6,17.2,15.6,26.7
	c3,6.1,10.5,9.7,13,15.3c3.2,7.3-5.4,16.7-14.7,16L268.1,183.5z"/>
</svg>
